<?xml version="1.0" standalone="no"?>
<!DOCTYPE svg PUBLIC "-//W3C//DTD SVG 20010904//EN"
 "http://www.w3.org/TR/2001/REC-SVG-20010904/DTD/svg10.dtd">
<svg version="1.0" xmlns="http://www.w3.org/2000/svg"
 width="700.000000pt" height="700.000000pt" viewBox="0 0 700.000000 700.000000"
 preserveAspectRatio="xMidYMid meet">
<metadata>
Created by potrace 1.14, written by Peter Selinger 2001-2017
</metadata>
<g transform="translate(0.000000,700.000000) scale(0.100000,-0.100000)"
fill="#000000" stroke="none">
<path d="M3280 6994 c-19 -2 -84 -9 -145 -14 -639 -62 -1264 -315 -1795 -726
-149 -115 -481 -446 -595 -594 -410 -532 -653 -1132 -727 -1795 -17 -155 -17
-575 0 -730 75 -673 332 -1300 748 -1820 114 -143 339 -372 484 -494 537 -451
1163 -717 1885 -803 142 -17 586 -17 730 0 682 79 1268 318 1802 734 138 107
389 351 512 498 451 538 717 1162 803 1885 16 139 16 595 0 730 -77 629 -275
1158 -620 1649 -234 333 -577 668 -917 896 -460 308 -968 495 -1535 566 -117
15 -552 27 -630 18z m658 -2341 c-3 -10 -130 -537 -284 -1170 l-278 -1153
-158 0 c-87 0 -158 3 -158 8 0 9 548 2301 555 2320 3 9 46 12 166 12 149 0
161 -1 157 -17z m-1028 -532 l0 -218 -534 -204 c-294 -112 -532 -207 -528
-210 6 -5 688 -277 980 -390 l82 -32 0 -218 0 -218 -62 27 c-35 14 -380 164
-768 333 l-705 306 -3 190 -2 189 762 331 c420 182 766 331 771 332 4 1 7 -97
7 -218z m1955 -116 l765 -330 -3 -189 -2 -189 -765 -334 c-421 -183 -768 -333
-773 -333 -4 0 -6 97 -5 216 l3 216 537 211 c295 117 534 214 532 217 -3 3
-245 98 -537 212 l-532 206 -3 217 c-2 148 1 216 8 213 6 -2 355 -152 775
-333z"/>
</g>
</svg>
